<?xml version="1.0"?>
<svg xmlns="http://www.w3.org/2000/svg" xmlns:xlink="http://www.w3.org/1999/xlink" xmlns:svgjs="http://svgjs.com/svgjs" version="1.1" width="512" height="512" x="0" y="0" viewBox="0 0 64 64" style="enable-background:new 0 0 512 512" xml:space="preserve" class=""><g><g xmlns="http://www.w3.org/2000/svg"><path d="m43 51.754v-7.509c-1.161.552-2 2.018-2 3.754s.839 3.203 2 3.755z" fill="#efefef" data-original="#000000" style="" class=""/><path d="m47 48c0-1.736-.839-3.202-2-3.754v7.509c1.161-.553 2-2.019 2-3.755z" fill="#efefef" data-original="#000000" style="" class=""/><path d="m39 57h10c2.206 0 4-1.794 4-4v-14h-18v14c0 2.206 1.794 4 4 4zm5-15c2.757 0 5 2.691 5 6s-2.243 6-5 6-5-2.691-5-6 2.243-6 5-6z" fill="#efefef" data-original="#000000" style="" class=""/><path d="m33 46.066v-12.066c0-.552.447-1 1-1h12.067c.509-1.619.808-3.293.892-5h-3.959v-2h3.949c-.237-4.759-2.137-9.077-5.14-12.395l-3.102 3.102-1.414-1.414 3.102-3.102c-3.318-3.004-7.636-4.903-12.395-5.14v3.949h-2v-3.949c-4.759.237-9.077 2.137-12.395 5.14l3.102 3.102-1.414 1.414-3.102-3.102c-3.004 3.318-4.903 7.636-5.14 12.395h3.949v2h-3.949c.237 4.759 2.137 9.077 5.14 12.395l3.102-3.102 1.414 1.414-3.102 3.102c3.318 3.004 7.635 4.903 12.395 5.14v-3.949h2v3.958c1.706-.084 3.38-.382 5-.892zm-6-15.066c-.74 0-1.424-.215-2.019-.567l-6.274 6.274-1.414-1.414 6.274-6.274c-.352-.595-.567-1.279-.567-2.019 0-1.858 1.279-3.411 3-3.858v-10.142h2v10.142c1.721.447 3 2 3 3.858 0 2.206-1.794 4-4 4z" fill="#efefef" data-original="#000000" style="" class=""/><path d="m35 35h18v2h-18z" fill="#efefef" data-original="#000000" style="" class=""/><path d="m57 37h-2v2h1c1.654 0 3 1.346 3 3v6c0 1.654-1.346 3-3 3h-1v2h2c2.206 0 4-1.794 4-4v-8c0-2.206-1.794-4-4-4z" fill="#efefef" data-original="#000000" style="" class=""/><path d="m32.657 59.243c1.133 1.133 2.64 1.757 4.242 1.757h14.201c1.603 0 3.109-.624 4.242-1.757l.243-.243h-23.17z" fill="#efefef" data-original="#000000" style="" class=""/><circle cx="27" cy="27" r="2" fill="#efefef" data-original="#000000" style="" class=""/><path d="m33 48.156c-1.945.551-3.955.844-6 .844-12.131 0-22-9.869-22-22s9.869-22 22-22 22 9.869 22 22c0 2.046-.293 4.056-.844 6h2.073c.503-1.952.771-3.964.771-6 0-13.233-10.767-24-24-24s-24 10.767-24 24 10.767 24 24 24c2.036 0 4.048-.269 6-.771z" fill="#efefef" data-original="#000000" style="" class=""/></g></g></svg>
